<?xml version="1.0" encoding="UTF-8" standalone="no"?>
<!DOCTYPE svg PUBLIC "-//W3C//DTD SVG 1.1//EN"
 "http://www.w3.org/Graphics/SVG/1.1/DTD/svg11.dtd">
<!-- Generated by graphviz version 2.49.1~dev.20210910.1546 (20210910.1546)
 -->
<!-- Title: ER Pages: 1 -->
<svg width="429pt" height="812pt"
 viewBox="0.00 0.00 428.69 812.00" xmlns="http://www.w3.org/2000/svg" xmlns:xlink="http://www.w3.org/1999/xlink">
<g id="graph0" class="graph" transform="scale(1 1) rotate(0) translate(4 808)">
<title>ER</title>
<polygon fill="white" stroke="transparent" points="-4,4 -4,-808 424.69,-808 424.69,4 -4,4"/>
<text text-anchor="middle" x="210.35" y="-32" font-family="Times,serif" font-size="20.00">Entity Relation Diagram</text>
<text text-anchor="middle" x="210.35" y="-10" font-family="Times,serif" font-size="20.00">drawn by NEATO</text>
<!-- user -->
<g id="node1" class="node">
<title>user</title>
<polygon fill="none" stroke="black" points="187.9,-731 133.9,-731 133.9,-695 187.9,-695 187.9,-731"/>
<text text-anchor="middle" x="160.9" y="-709.3" font-family="Times,serif" font-size="14.00">user</text>
</g>
<!-- email -->
<g id="node12" class="node">
<title>email</title>
<ellipse fill="none" stroke="black" cx="43.9" cy="-626" rx="30.59" ry="18"/>
<text text-anchor="middle" x="43.9" y="-622.3" font-family="Times,serif" font-size="14.00">email</text>
</g>
<!-- user&#45;&#45;email -->
<g id="edge3" class="edge">
<title>user&#45;&#45;email</title>
<path fill="none" stroke="black" d="M137.22,-694.8C115.19,-678.79 82.79,-655.25 62.54,-640.54"/>
</g>
<!-- has0 -->
<g id="node14" class="node">
<title>has0</title>
<polygon fill="lightgrey" stroke="lightgrey" points="124.9,-644 92.56,-626 124.9,-608 157.24,-626 124.9,-644"/>
<text text-anchor="middle" x="124.9" y="-622.3" font-family="Times,serif" font-size="14.00">has</text>
</g>
<!-- user&#45;&#45;has0 -->
<g id="edge4" class="edge">
<title>user&#45;&#45;has0</title>
<path fill="none" stroke="black" d="M153.61,-694.8C146.87,-678.89 136.98,-655.54 130.75,-640.81"/>
<text text-anchor="middle" x="149.4" y="-665.8" font-family="Times,serif" font-size="14.00">n</text>
</g>
<!-- subscribes -->
<g id="node17" class="node">
<title>subscribes</title>
<polygon fill="lightgrey" stroke="lightgrey" points="240.9,-644 174.54,-626 240.9,-608 307.26,-626 240.9,-644"/>
<text text-anchor="middle" x="240.9" y="-622.3" font-family="Times,serif" font-size="14.00">subscribes</text>
</g>
<!-- user&#45;&#45;subscribes -->
<g id="edge6" class="edge">
<title>user&#45;&#45;subscribes</title>
<path fill="none" stroke="black" d="M175.64,-694.58C184.04,-684.83 194.85,-672.55 204.9,-662 211.87,-654.67 219.91,-646.8 226.63,-640.38"/>
<text text-anchor="middle" x="208.4" y="-665.8" font-family="Times,serif" font-size="14.00">n</text>
</g>
<!-- channel -->
<g id="node2" class="node">
<title>channel</title>
<polygon fill="none" stroke="black" points="154.4,-557 95.4,-557 95.4,-521 154.4,-521 154.4,-557"/>
<text text-anchor="middle" x="124.9" y="-535.3" font-family="Times,serif" font-size="14.00">channel</text>
</g>
<!-- name1 -->
<g id="node6" class="node">
<title>name1</title>
<ellipse fill="none" stroke="black" cx="29.9" cy="-452" rx="29.8" ry="18"/>
<text text-anchor="middle" x="29.9" y="-448.3" font-family="Times,serif" font-size="14.00">name</text>
</g>
<!-- channel&#45;&#45;name1 -->
<g id="edge8" class="edge">
<title>channel&#45;&#45;name1</title>
<path fill="none" stroke="black" d="M105.67,-520.8C88.11,-505.08 62.43,-482.11 45.94,-467.35"/>
</g>
<!-- created_at1 -->
<g id="node9" class="node">
<title>created_at1</title>
<ellipse fill="none" stroke="black" cx="124.9" cy="-452" rx="46.59" ry="18"/>
<text text-anchor="middle" x="124.9" y="-448.3" font-family="Times,serif" font-size="14.00">created_at</text>
</g>
<!-- channel&#45;&#45;created_at1 -->
<g id="edge9" class="edge">
<title>channel&#45;&#45;created_at1</title>
<path fill="none" stroke="black" d="M124.9,-520.8C124.9,-506.05 124.9,-484.92 124.9,-470.18"/>
</g>
<!-- has1 -->
<g id="node15" class="node">
<title>has1</title>
<polygon fill="lightgrey" stroke="lightgrey" points="221.9,-470 189.56,-452 221.9,-434 254.24,-452 221.9,-470"/>
<text text-anchor="middle" x="221.9" y="-448.3" font-family="Times,serif" font-size="14.00">has</text>
</g>
<!-- channel&#45;&#45;has1 -->
<g id="edge10" class="edge">
<title>channel&#45;&#45;has1</title>
<path fill="none" stroke="black" d="M144.53,-520.8C164.12,-503.63 193.61,-477.79 209.94,-463.48"/>
<text text-anchor="middle" x="183.4" y="-491.8" font-family="Times,serif" font-size="14.00">1</text>
</g>
<!-- video -->
<g id="node3" class="node">
<title>video</title>
<polygon fill="none" stroke="black" points="248.9,-383 194.9,-383 194.9,-347 248.9,-347 248.9,-383"/>
<text text-anchor="middle" x="221.9" y="-361.3" font-family="Times,serif" font-size="14.00">video</text>
</g>
<!-- name2 -->
<g id="node7" class="node">
<title>name2</title>
<ellipse fill="none" stroke="black" cx="71.9" cy="-278" rx="29.8" ry="18"/>
<text text-anchor="middle" x="71.9" y="-274.3" font-family="Times,serif" font-size="14.00">name</text>
</g>
<!-- video&#45;&#45;name2 -->
<g id="edge12" class="edge">
<title>video&#45;&#45;name2</title>
<path fill="none" stroke="black" d="M194.73,-348.61C165.52,-332.05 119.69,-306.09 93.05,-290.99"/>
</g>
<!-- created_at2 -->
<g id="node10" class="node">
<title>created_at2</title>
<ellipse fill="none" stroke="black" cx="166.9" cy="-278" rx="46.59" ry="18"/>
<text text-anchor="middle" x="166.9" y="-274.3" font-family="Times,serif" font-size="14.00">created_at</text>
</g>
<!-- video&#45;&#45;created_at2 -->
<g id="edge13" class="edge">
<title>video&#45;&#45;created_at2</title>
<path fill="none" stroke="black" d="M210.77,-346.8C201.1,-331.86 187.19,-310.36 177.64,-295.6"/>
</g>
<!-- video_file -->
<g id="node13" class="node">
<title>video_file</title>
<ellipse fill="none" stroke="black" cx="277.9" cy="-278" rx="46.29" ry="18"/>
<text text-anchor="middle" x="277.9" y="-274.3" font-family="Times,serif" font-size="14.00">video_file</text>
</g>
<!-- video&#45;&#45;video_file -->
<g id="edge14" class="edge">
<title>video&#45;&#45;video_file</title>
<path fill="none" stroke="black" d="M233.23,-346.8C243.07,-331.86 257.24,-310.36 266.96,-295.6"/>
</g>
<!-- has2 -->
<g id="node16" class="node">
<title>has2</title>
<polygon fill="lightgrey" stroke="lightgrey" points="373.9,-296 341.56,-278 373.9,-260 406.24,-278 373.9,-296"/>
<text text-anchor="middle" x="373.9" y="-274.3" font-family="Times,serif" font-size="14.00">has</text>
</g>
<!-- video&#45;&#45;has2 -->
<g id="edge15" class="edge">
<title>video&#45;&#45;has2</title>
<path fill="none" stroke="black" d="M249.07,-348.8C281.01,-330.94 332.89,-301.93 358.54,-287.59"/>
<text text-anchor="middle" x="310.4" y="-317.8" font-family="Times,serif" font-size="14.00">1</text>
</g>
<!-- comment -->
<g id="node4" class="node">
<title>comment</title>
<polygon fill="none" stroke="black" points="407.9,-209 339.9,-209 339.9,-173 407.9,-173 407.9,-209"/>
<text text-anchor="middle" x="373.9" y="-187.3" font-family="Times,serif" font-size="14.00">comment</text>
</g>
<!-- created_at3 -->
<g id="node11" class="node">
<title>created_at3</title>
<ellipse fill="none" stroke="black" cx="373.9" cy="-118" rx="46.59" ry="18"/>
<text text-anchor="middle" x="373.9" y="-114.3" font-family="Times,serif" font-size="14.00">created_at</text>
</g>
<!-- comment&#45;&#45;created_at3 -->
<g id="edge17" class="edge">
<title>comment&#45;&#45;created_at3</title>
<path fill="none" stroke="black" d="M373.9,-172.81C373.9,-161.65 373.9,-147.16 373.9,-136.03"/>
</g>
<!-- name0 -->
<g id="node5" class="node">
<title>name0</title>
<ellipse fill="none" stroke="black" cx="113.9" cy="-786" rx="29.8" ry="18"/>
<text text-anchor="middle" x="113.9" y="-782.3" font-family="Times,serif" font-size="14.00">name</text>
</g>
<!-- name0&#45;&#45;user -->
<g id="edge1" class="edge">
<title>name0&#45;&#45;user</title>
<path fill="none" stroke="black" d="M124.56,-768.89C132.04,-757.6 142.01,-742.53 149.62,-731.04"/>
</g>
<!-- created_at0 -->
<g id="node8" class="node">
<title>created_at0</title>
<ellipse fill="none" stroke="black" cx="208.9" cy="-786" rx="46.59" ry="18"/>
<text text-anchor="middle" x="208.9" y="-782.3" font-family="Times,serif" font-size="14.00">created_at</text>
</g>
<!-- created_at0&#45;&#45;user -->
<g id="edge2" class="edge">
<title>created_at0&#45;&#45;user</title>
<path fill="none" stroke="black" d="M197.52,-768.17C189.98,-757.02 180.12,-742.43 172.52,-731.2"/>
</g>
<!-- has0&#45;&#45;channel -->
<g id="edge5" class="edge">
<title>has0&#45;&#45;channel</title>
<path fill="none" stroke="black" d="M124.9,-607.8C124.9,-593.05 124.9,-571.92 124.9,-557.18"/>
<text text-anchor="middle" x="128.4" y="-578.8" font-family="Times,serif" font-size="14.00">n</text>
</g>
<!-- has1&#45;&#45;video -->
<g id="edge11" class="edge">
<title>has1&#45;&#45;video</title>
<path fill="none" stroke="black" d="M221.9,-433.8C221.9,-419.05 221.9,-397.92 221.9,-383.18"/>
<text text-anchor="middle" x="225.4" y="-404.8" font-family="Times,serif" font-size="14.00">n</text>
</g>
<!-- has2&#45;&#45;comment -->
<g id="edge16" class="edge">
<title>has2&#45;&#45;comment</title>
<path fill="none" stroke="black" d="M373.9,-259.8C373.9,-245.05 373.9,-223.92 373.9,-209.18"/>
<text text-anchor="middle" x="377.4" y="-230.8" font-family="Times,serif" font-size="14.00">n</text>
</g>
<!-- subscribes&#45;&#45;user -->
<g id="edge7" class="edge">
<title>subscribes&#45;&#45;user</title>
<path fill="none" stroke="black" d="M234.09,-642.6C229,-653.11 221.31,-666.84 211.9,-677 205.04,-684.4 196.34,-691.09 188.07,-696.59"/>
<text text-anchor="middle" x="227.9" y="-665.8" font-family="Times,serif" font-size="14.00">m</text>
</g>
</g>
</svg>
